<mxfile host="app.diagrams.net" modified="2023-04-08T01:34:54.022Z" agent="Mozilla/5.0 (Windows NT 10.0; Win64; x64) AppleWebKit/537.36 (KHTML, like Gecko) Chrome/111.0.0.0 Safari/537.36" etag="oKQpDErnroBgmlEP70J4" version="21.1.4" type="github">
  <diagram name="Page-1" id="c37626ed-c26b-45fb-9056-f9ebc6bb27b6">
    <mxGraphModel dx="1865" dy="858" grid="1" gridSize="10" guides="1" tooltips="1" connect="1" arrows="1" fold="1" page="1" pageScale="1" pageWidth="1100" pageHeight="850" background="none" math="0" shadow="0">
      <root>
        <mxCell id="0" />
        <mxCell id="1" parent="0" />
        <mxCell id="1c7a67bf8fd3230f-82" value="VLAN 4" style="whiteSpace=wrap;html=1;rounded=0;shadow=0;comic=0;strokeWidth=1;fontFamily=Verdana;fontSize=14;fillColor=#f5f5f5;strokeColor=none;fontStyle=1;verticalAlign=top;" parent="1" vertex="1">
          <mxGeometry x="1370" y="839" width="370" height="587" as="geometry" />
        </mxCell>
        <mxCell id="1c7a67bf8fd3230f-81" value="VLAN 3" style="whiteSpace=wrap;html=1;rounded=0;shadow=0;comic=0;strokeWidth=1;fontFamily=Verdana;fontSize=14;fillColor=#f5f5f5;strokeColor=none;fontStyle=1;verticalAlign=top;" parent="1" vertex="1">
          <mxGeometry x="910" y="838.9999999999999" width="432" height="587" as="geometry" />
        </mxCell>
        <mxCell id="1c7a67bf8fd3230f-80" value="VLAN 2" style="whiteSpace=wrap;html=1;rounded=0;shadow=0;comic=0;strokeWidth=1;fontFamily=Verdana;fontSize=14;fillColor=#f5f5f5;strokeColor=none;fontStyle=1;verticalAlign=top;" parent="1" vertex="1">
          <mxGeometry x="370" y="826.5" width="520" height="587" as="geometry" />
        </mxCell>
        <mxCell id="1c7a67bf8fd3230f-39" style="edgeStyle=none;html=1;labelBackgroundColor=none;startFill=0;endArrow=none;endFill=0;strokeWidth=2;fontFamily=Verdana;fontSize=12;exitX=0;exitY=0.5;exitDx=0;exitDy=0;exitPerimeter=0;entryX=0.5;entryY=0;entryDx=0;entryDy=0;entryPerimeter=0;" parent="1" source="DP6542mGB5KoRigt7Mso-3" target="DP6542mGB5KoRigt7Mso-15" edge="1">
          <mxGeometry relative="1" as="geometry">
            <mxPoint x="1289.2993506493508" y="440" as="sourcePoint" />
            <mxPoint x="1254" y="612" as="targetPoint" />
          </mxGeometry>
        </mxCell>
        <mxCell id="1c7a67bf8fd3230f-41" style="edgeStyle=none;html=1;labelBackgroundColor=none;startFill=0;endArrow=none;endFill=0;strokeWidth=2;fontFamily=Verdana;fontSize=12;entryX=1;entryY=0.5;entryDx=0;entryDy=0;entryPerimeter=0;exitX=0.5;exitY=0;exitDx=0;exitDy=0;exitPerimeter=0;" parent="1" source="DP6542mGB5KoRigt7Mso-16" target="DP6542mGB5KoRigt7Mso-15" edge="1">
          <mxGeometry relative="1" as="geometry">
            <mxPoint x="791.5" y="849.0000000000002" as="sourcePoint" />
            <mxPoint x="1214" y="652" as="targetPoint" />
          </mxGeometry>
        </mxCell>
        <mxCell id="1c7a67bf8fd3230f-45" style="edgeStyle=none;html=1;labelBackgroundColor=none;startFill=0;endArrow=none;endFill=0;strokeWidth=2;fontFamily=Verdana;fontSize=12;entryX=1;entryY=0.5;entryDx=0;entryDy=0;entryPerimeter=0;exitX=0.75;exitY=1;exitDx=0;exitDy=0;exitPerimeter=0;" parent="1" source="DP6542mGB5KoRigt7Mso-15" target="DP6542mGB5KoRigt7Mso-12" edge="1">
          <mxGeometry relative="1" as="geometry">
            <mxPoint x="1021" y="504.6463022508037" as="sourcePoint" />
            <mxPoint x="774.0000000000005" y="517.353697749196" as="targetPoint" />
          </mxGeometry>
        </mxCell>
        <mxCell id="1c7a67bf8fd3230f-50" style="edgeStyle=none;html=1;labelBackgroundColor=none;startFill=0;endArrow=none;endFill=0;strokeWidth=2;fontFamily=Verdana;fontSize=12;exitX=1;exitY=0.5;exitDx=0;exitDy=0;exitPerimeter=0;entryX=0.5;entryY=0;entryDx=0;entryDy=0;entryPerimeter=0;" parent="1" source="DP6542mGB5KoRigt7Mso-15" target="DP6542mGB5KoRigt7Mso-18" edge="1">
          <mxGeometry relative="1" as="geometry">
            <mxPoint x="1214" y="652" as="sourcePoint" />
            <mxPoint x="1192" y="870" as="targetPoint" />
          </mxGeometry>
        </mxCell>
        <mxCell id="1c7a67bf8fd3230f-15" value="Internet" style="ellipse;shape=cloud;whiteSpace=wrap;html=1;rounded=0;shadow=0;comic=0;strokeWidth=1;fontFamily=Verdana;fontSize=12;" parent="1" vertex="1">
          <mxGeometry x="1595" y="370" width="380" height="248" as="geometry" />
        </mxCell>
        <mxCell id="1c7a67bf8fd3230f-68" style="edgeStyle=none;html=1;labelBackgroundColor=none;startFill=0;endArrow=none;endFill=0;strokeWidth=2;fontFamily=Verdana;fontSize=12;exitX=0.25;exitY=1;exitDx=0;exitDy=0;exitPerimeter=0;entryX=0.687;entryY=0.09;entryDx=0;entryDy=0;entryPerimeter=0;" parent="1" source="DP6542mGB5KoRigt7Mso-16" target="DP6542mGB5KoRigt7Mso-20" edge="1">
          <mxGeometry relative="1" as="geometry">
            <mxPoint x="764" y="1055.0260869565216" as="sourcePoint" />
          </mxGeometry>
        </mxCell>
        <mxCell id="1c7a67bf8fd3230f-76" style="edgeStyle=none;html=1;labelBackgroundColor=none;startFill=0;endArrow=none;endFill=0;strokeWidth=2;fontFamily=Verdana;fontSize=12;exitX=0.5;exitY=1;exitDx=0;exitDy=0;exitPerimeter=0;entryX=0.5;entryY=0;entryDx=0;entryDy=0;entryPerimeter=0;" parent="1" source="DP6542mGB5KoRigt7Mso-18" target="DP6542mGB5KoRigt7Mso-42" edge="1">
          <mxGeometry relative="1" as="geometry">
            <mxPoint x="1202.6601941747572" y="1093" as="sourcePoint" />
            <mxPoint x="1185.3398058252428" y="1316" as="targetPoint" />
          </mxGeometry>
        </mxCell>
        <mxCell id="1c7a67bf8fd3230f-52" style="edgeStyle=none;html=1;labelBackgroundColor=none;startFill=0;endArrow=none;endFill=0;strokeWidth=2;fontFamily=Verdana;fontSize=12;exitX=1;exitY=0.5;exitDx=0;exitDy=0;exitPerimeter=0;entryX=0;entryY=0.5;entryDx=0;entryDy=0;entryPerimeter=0;" parent="1" source="DP6542mGB5KoRigt7Mso-3" target="DP6542mGB5KoRigt7Mso-13" edge="1">
          <mxGeometry relative="1" as="geometry">
            <mxPoint x="1340" y="370" as="sourcePoint" />
            <mxPoint x="1560" y="330" as="targetPoint" />
          </mxGeometry>
        </mxCell>
        <mxCell id="DP6542mGB5KoRigt7Mso-3" value="" style="sketch=0;points=[[0.5,0,0],[1,0.5,0],[0.5,1,0],[0,0.5,0],[0.145,0.145,0],[0.8555,0.145,0],[0.855,0.8555,0],[0.145,0.855,0]];verticalLabelPosition=bottom;html=1;verticalAlign=top;aspect=fixed;align=center;pointerEvents=1;shape=mxgraph.cisco19.rect;prIcon=router;fillColor=#FAFAFA;strokeColor=#005073;" vertex="1" parent="1">
          <mxGeometry x="1252" y="510" width="90" height="90" as="geometry" />
        </mxCell>
        <mxCell id="DP6542mGB5KoRigt7Mso-11" style="edgeStyle=none;html=1;labelBackgroundColor=none;startFill=0;endArrow=none;endFill=0;strokeWidth=2;fontFamily=Verdana;fontSize=12;exitX=1;exitY=0.5;exitDx=0;exitDy=0;exitPerimeter=0;entryX=0;entryY=0.25;entryDx=0;entryDy=0;entryPerimeter=0;" edge="1" parent="1" source="DP6542mGB5KoRigt7Mso-15" target="DP6542mGB5KoRigt7Mso-19">
          <mxGeometry relative="1" as="geometry">
            <mxPoint x="1214" y="652" as="sourcePoint" />
            <mxPoint x="1410" y="867.9050359712228" as="targetPoint" />
          </mxGeometry>
        </mxCell>
        <mxCell id="DP6542mGB5KoRigt7Mso-12" value="" style="sketch=0;points=[[0.5,0,0],[1,0.5,0],[0.5,1,0],[0,0.5,0],[0.145,0.145,0],[0.8555,0.145,0],[0.855,0.8555,0],[0.145,0.855,0]];verticalLabelPosition=bottom;html=1;verticalAlign=top;aspect=fixed;align=center;pointerEvents=1;shape=mxgraph.cisco19.rect;prIcon=wireless_router;fillColor=#FAFAFA;strokeColor=#005073;" vertex="1" parent="1">
          <mxGeometry x="590" y="880" width="80" height="96" as="geometry" />
        </mxCell>
        <mxCell id="DP6542mGB5KoRigt7Mso-13" value="" style="sketch=0;points=[[0.015,0.015,0],[0.985,0.015,0],[0.985,0.985,0],[0.015,0.985,0],[0.25,0,0],[0.5,0,0],[0.75,0,0],[1,0.25,0],[1,0.5,0],[1,0.75,0],[0.75,1,0],[0.5,1,0],[0.25,1,0],[0,0.75,0],[0,0.5,0],[0,0.25,0]];verticalLabelPosition=bottom;html=1;verticalAlign=top;aspect=fixed;align=center;pointerEvents=1;shape=mxgraph.cisco19.rect;prIcon=firewall;fillColor=#FAFAFA;strokeColor=#005073;" vertex="1" parent="1">
          <mxGeometry x="1440" y="480" width="102.4" height="80" as="geometry" />
        </mxCell>
        <mxCell id="DP6542mGB5KoRigt7Mso-14" value="" style="points=[[0.22,0.185,0],[0.5,0,0],[0.78,0.185,0],[0.975,0.49,0],[1,0.73,0],[0.975,0.97,0],[0.5,1,0],[0.025,0.97,0],[0,0.73,0],[0.025,0.49,0]];verticalLabelPosition=bottom;sketch=0;html=1;verticalAlign=top;aspect=fixed;align=center;pointerEvents=1;shape=mxgraph.cisco19.printer;fillColor=#005073;strokeColor=none;" vertex="1" parent="1">
          <mxGeometry x="600" y="1299.5" width="89.44" height="80.5" as="geometry" />
        </mxCell>
        <mxCell id="DP6542mGB5KoRigt7Mso-15" value="" style="sketch=0;points=[[0.015,0.015,0],[0.985,0.015,0],[0.985,0.985,0],[0.015,0.985,0],[0.25,0,0],[0.5,0,0],[0.75,0,0],[1,0.25,0],[1,0.5,0],[1,0.75,0],[0.75,1,0],[0.5,1,0],[0.25,1,0],[0,0.75,0],[0,0.5,0],[0,0.25,0]];verticalLabelPosition=bottom;html=1;verticalAlign=top;aspect=fixed;align=center;pointerEvents=1;shape=mxgraph.cisco19.rect;prIcon=l3_switch;fillColor=#FAFAFA;strokeColor=#005073;direction=south;" vertex="1" parent="1">
          <mxGeometry x="1050" y="540" width="109" height="109" as="geometry" />
        </mxCell>
        <mxCell id="DP6542mGB5KoRigt7Mso-16" value="" style="sketch=0;points=[[0.015,0.015,0],[0.985,0.015,0],[0.985,0.985,0],[0.015,0.985,0],[0.25,0,0],[0.5,0,0],[0.75,0,0],[1,0.25,0],[1,0.5,0],[1,0.75,0],[0.75,1,0],[0.5,1,0],[0.25,1,0],[0,0.75,0],[0,0.5,0],[0,0.25,0]];verticalLabelPosition=bottom;html=1;verticalAlign=top;aspect=fixed;align=center;pointerEvents=1;shape=mxgraph.cisco19.rect;prIcon=l2_switch;fillColor=#FAFAFA;strokeColor=#005073;" vertex="1" parent="1">
          <mxGeometry x="763.07" y="895" width="73" height="73" as="geometry" />
        </mxCell>
        <mxCell id="DP6542mGB5KoRigt7Mso-18" value="" style="sketch=0;points=[[0.015,0.015,0],[0.985,0.015,0],[0.985,0.985,0],[0.015,0.985,0],[0.25,0,0],[0.5,0,0],[0.75,0,0],[1,0.25,0],[1,0.5,0],[1,0.75,0],[0.75,1,0],[0.5,1,0],[0.25,1,0],[0,0.75,0],[0,0.5,0],[0,0.25,0]];verticalLabelPosition=bottom;html=1;verticalAlign=top;aspect=fixed;align=center;pointerEvents=1;shape=mxgraph.cisco19.rect;prIcon=l2_switch;fillColor=#FAFAFA;strokeColor=#005073;" vertex="1" parent="1">
          <mxGeometry x="980" y="891.5" width="73" height="73" as="geometry" />
        </mxCell>
        <mxCell id="DP6542mGB5KoRigt7Mso-19" value="" style="sketch=0;points=[[0.015,0.015,0],[0.985,0.015,0],[0.985,0.985,0],[0.015,0.985,0],[0.25,0,0],[0.5,0,0],[0.75,0,0],[1,0.25,0],[1,0.5,0],[1,0.75,0],[0.75,1,0],[0.5,1,0],[0.25,1,0],[0,0.75,0],[0,0.5,0],[0,0.25,0]];verticalLabelPosition=bottom;html=1;verticalAlign=top;aspect=fixed;align=center;pointerEvents=1;shape=mxgraph.cisco19.rect;prIcon=l2_switch;fillColor=#FAFAFA;strokeColor=#005073;" vertex="1" parent="1">
          <mxGeometry x="1445" y="888" width="73" height="73" as="geometry" />
        </mxCell>
        <mxCell id="DP6542mGB5KoRigt7Mso-20" value="" style="points=[[0.13,0.02,0],[0.5,0,0],[0.87,0.02,0],[0.885,0.4,0],[0.985,0.985,0],[0.5,1,0],[0.015,0.985,0],[0.115,0.4,0]];verticalLabelPosition=bottom;sketch=0;html=1;verticalAlign=top;aspect=fixed;align=center;pointerEvents=1;shape=mxgraph.cisco19.laptop;fillColor=#005073;strokeColor=none;" vertex="1" parent="1">
          <mxGeometry x="550" y="1130" width="102.86" height="72" as="geometry" />
        </mxCell>
        <mxCell id="DP6542mGB5KoRigt7Mso-22" value="" style="points=[[0.03,0.03,0],[0.5,0,0],[0.97,0.03,0],[1,0.4,0],[0.97,0.745,0],[0.5,1,0],[0.03,0.745,0],[0,0.4,0]];verticalLabelPosition=bottom;sketch=0;html=1;verticalAlign=top;aspect=fixed;align=center;pointerEvents=1;shape=mxgraph.cisco19.workstation;fillColor=#005073;strokeColor=none;" vertex="1" parent="1">
          <mxGeometry x="670" y="1133" width="82.5" height="66" as="geometry" />
        </mxCell>
        <mxCell id="DP6542mGB5KoRigt7Mso-24" style="edgeStyle=none;html=1;labelBackgroundColor=none;startFill=0;endArrow=none;endFill=0;strokeWidth=2;fontFamily=Verdana;fontSize=12;exitX=0.5;exitY=1;exitDx=0;exitDy=0;exitPerimeter=0;entryX=0.5;entryY=0;entryDx=0;entryDy=0;entryPerimeter=0;" edge="1" parent="1" source="DP6542mGB5KoRigt7Mso-16" target="DP6542mGB5KoRigt7Mso-22">
          <mxGeometry relative="1" as="geometry">
            <mxPoint x="806" y="953" as="sourcePoint" />
            <mxPoint x="611" y="1260" as="targetPoint" />
          </mxGeometry>
        </mxCell>
        <mxCell id="DP6542mGB5KoRigt7Mso-25" value="" style="points=[[0.03,0.36,0],[0.18,0,0],[0.5,0.34,0],[0.82,0,0],[0.97,0.36,0],[1,0.67,0],[0.975,0.975,0],[0.5,1,0],[0.025,0.975,0],[0,0.67,0]];verticalLabelPosition=bottom;sketch=0;html=1;verticalAlign=top;aspect=fixed;align=center;pointerEvents=1;shape=mxgraph.cisco19.wireless_access_point;fillColor=#005073;strokeColor=none;" vertex="1" parent="1">
          <mxGeometry x="390" y="888" width="80" height="80" as="geometry" />
        </mxCell>
        <mxCell id="DP6542mGB5KoRigt7Mso-28" value="" style="points=[[0.03,0.36,0],[0.18,0,0],[0.5,0.34,0],[0.82,0,0],[0.97,0.36,0],[1,0.67,0],[0.975,0.975,0],[0.5,1,0],[0.025,0.975,0],[0,0.67,0]];verticalLabelPosition=bottom;sketch=0;html=1;verticalAlign=top;aspect=fixed;align=center;pointerEvents=1;shape=mxgraph.cisco19.wireless_access_point;fillColor=#005073;strokeColor=none;" vertex="1" parent="1">
          <mxGeometry x="390" y="990" width="80" height="80" as="geometry" />
        </mxCell>
        <mxCell id="DP6542mGB5KoRigt7Mso-29" style="edgeStyle=none;html=1;labelBackgroundColor=none;startFill=0;endArrow=none;endFill=0;strokeWidth=2;fontFamily=Verdana;fontSize=12;entryX=1;entryY=0.67;entryDx=0;entryDy=0;entryPerimeter=0;exitX=0;exitY=0.5;exitDx=0;exitDy=0;exitPerimeter=0;" edge="1" parent="1" source="DP6542mGB5KoRigt7Mso-12" target="DP6542mGB5KoRigt7Mso-25">
          <mxGeometry relative="1" as="geometry">
            <mxPoint x="720" y="542.8071065989848" as="sourcePoint" />
            <mxPoint x="600" y="595" as="targetPoint" />
          </mxGeometry>
        </mxCell>
        <mxCell id="DP6542mGB5KoRigt7Mso-30" style="edgeStyle=none;html=1;labelBackgroundColor=none;startFill=0;endArrow=none;endFill=0;strokeWidth=2;fontFamily=Verdana;fontSize=12;entryX=0.97;entryY=0.36;entryDx=0;entryDy=0;entryPerimeter=0;exitX=0.145;exitY=0.855;exitDx=0;exitDy=0;exitPerimeter=0;" edge="1" parent="1" source="DP6542mGB5KoRigt7Mso-12" target="DP6542mGB5KoRigt7Mso-28">
          <mxGeometry relative="1" as="geometry">
            <mxPoint x="730" y="552.8071065989848" as="sourcePoint" />
            <mxPoint x="610" y="605" as="targetPoint" />
          </mxGeometry>
        </mxCell>
        <mxCell id="DP6542mGB5KoRigt7Mso-31" value="" style="points=[[0.03,0.36,0],[0.18,0,0],[0.5,0.34,0],[0.82,0,0],[0.97,0.36,0],[1,0.67,0],[0.975,0.975,0],[0.5,1,0],[0.025,0.975,0],[0,0.67,0]];verticalLabelPosition=bottom;sketch=0;html=1;verticalAlign=top;aspect=fixed;align=center;pointerEvents=1;shape=mxgraph.cisco19.wireless_access_point;fillColor=#005073;strokeColor=none;" vertex="1" parent="1">
          <mxGeometry x="390" y="1080" width="80" height="80" as="geometry" />
        </mxCell>
        <mxCell id="DP6542mGB5KoRigt7Mso-32" value="" style="points=[[0.03,0.36,0],[0.18,0,0],[0.5,0.34,0],[0.82,0,0],[0.97,0.36,0],[1,0.67,0],[0.975,0.975,0],[0.5,1,0],[0.025,0.975,0],[0,0.67,0]];verticalLabelPosition=bottom;sketch=0;html=1;verticalAlign=top;aspect=fixed;align=center;pointerEvents=1;shape=mxgraph.cisco19.wireless_access_point;fillColor=#005073;strokeColor=none;" vertex="1" parent="1">
          <mxGeometry x="390" y="1170" width="80" height="80" as="geometry" />
        </mxCell>
        <mxCell id="DP6542mGB5KoRigt7Mso-33" style="edgeStyle=none;html=1;labelBackgroundColor=none;startFill=0;endArrow=none;endFill=0;strokeWidth=2;fontFamily=Verdana;fontSize=12;entryX=1;entryY=0.67;entryDx=0;entryDy=0;entryPerimeter=0;exitX=0.145;exitY=0.855;exitDx=0;exitDy=0;exitPerimeter=0;" edge="1" parent="1" source="DP6542mGB5KoRigt7Mso-12" target="DP6542mGB5KoRigt7Mso-31">
          <mxGeometry relative="1" as="geometry">
            <mxPoint x="612" y="972" as="sourcePoint" />
            <mxPoint x="478" y="1029" as="targetPoint" />
          </mxGeometry>
        </mxCell>
        <mxCell id="DP6542mGB5KoRigt7Mso-34" style="edgeStyle=none;html=1;labelBackgroundColor=none;startFill=0;endArrow=none;endFill=0;strokeWidth=2;fontFamily=Verdana;fontSize=12;entryX=1;entryY=0.67;entryDx=0;entryDy=0;entryPerimeter=0;exitX=0.5;exitY=1;exitDx=0;exitDy=0;exitPerimeter=0;" edge="1" parent="1" source="DP6542mGB5KoRigt7Mso-12" target="DP6542mGB5KoRigt7Mso-32">
          <mxGeometry relative="1" as="geometry">
            <mxPoint x="630" y="970" as="sourcePoint" />
            <mxPoint x="480" y="1144" as="targetPoint" />
          </mxGeometry>
        </mxCell>
        <mxCell id="DP6542mGB5KoRigt7Mso-35" value="" style="points=[[0.13,0.02,0],[0.5,0,0],[0.87,0.02,0],[0.885,0.4,0],[0.985,0.985,0],[0.5,1,0],[0.015,0.985,0],[0.115,0.4,0]];verticalLabelPosition=bottom;sketch=0;html=1;verticalAlign=top;aspect=fixed;align=center;pointerEvents=1;shape=mxgraph.cisco19.laptop;fillColor=#005073;strokeColor=none;" vertex="1" parent="1">
          <mxGeometry x="763.0699999999999" y="1130" width="102.86" height="72" as="geometry" />
        </mxCell>
        <mxCell id="DP6542mGB5KoRigt7Mso-36" value="" style="sketch=0;points=[[0.015,0.015,0],[0.985,0.015,0],[0.985,0.985,0],[0.015,0.985,0],[0.25,0,0],[0.5,0,0],[0.75,0,0],[1,0.25,0],[1,0.5,0],[1,0.75,0],[0.75,1,0],[0.5,1,0],[0.25,1,0],[0,0.75,0],[0,0.5,0],[0,0.25,0]];verticalLabelPosition=bottom;html=1;verticalAlign=top;aspect=fixed;align=center;pointerEvents=1;shape=mxgraph.cisco19.cell_phone;fillColor=#005073;strokeColor=none;" vertex="1" parent="1">
          <mxGeometry x="410" y="1330" width="25" height="50" as="geometry" />
        </mxCell>
        <mxCell id="DP6542mGB5KoRigt7Mso-37" style="edgeStyle=none;html=1;labelBackgroundColor=none;startFill=0;endArrow=none;endFill=0;strokeWidth=2;fontFamily=Verdana;fontSize=12;exitX=0.5;exitY=1;exitDx=0;exitDy=0;exitPerimeter=0;entryX=0.5;entryY=0;entryDx=0;entryDy=0;entryPerimeter=0;" edge="1" parent="1" source="DP6542mGB5KoRigt7Mso-32" target="DP6542mGB5KoRigt7Mso-36">
          <mxGeometry relative="1" as="geometry">
            <mxPoint x="806" y="953" as="sourcePoint" />
            <mxPoint x="631" y="1146" as="targetPoint" />
          </mxGeometry>
        </mxCell>
        <mxCell id="DP6542mGB5KoRigt7Mso-38" value="" style="sketch=0;points=[[0.015,0.015,0],[0.985,0.015,0],[0.985,0.985,0],[0.015,0.985,0],[0.25,0,0],[0.5,0,0],[0.75,0,0],[1,0.25,0],[1,0.5,0],[1,0.75,0],[0.75,1,0],[0.5,1,0],[0.25,1,0],[0,0.75,0],[0,0.5,0],[0,0.25,0]];verticalLabelPosition=bottom;html=1;verticalAlign=top;aspect=fixed;align=center;pointerEvents=1;shape=mxgraph.cisco19.cell_phone;fillColor=#005073;strokeColor=none;" vertex="1" parent="1">
          <mxGeometry x="460" y="1330" width="25" height="50" as="geometry" />
        </mxCell>
        <mxCell id="DP6542mGB5KoRigt7Mso-40" style="edgeStyle=none;html=1;labelBackgroundColor=none;startFill=0;endArrow=none;endFill=0;strokeWidth=2;fontFamily=Verdana;fontSize=12;exitX=0.5;exitY=1;exitDx=0;exitDy=0;exitPerimeter=0;entryX=0.5;entryY=0;entryDx=0;entryDy=0;entryPerimeter=0;" edge="1" parent="1" source="DP6542mGB5KoRigt7Mso-32" target="DP6542mGB5KoRigt7Mso-38">
          <mxGeometry relative="1" as="geometry">
            <mxPoint x="440" y="1260" as="sourcePoint" />
            <mxPoint x="433" y="1340" as="targetPoint" />
          </mxGeometry>
        </mxCell>
        <mxCell id="DP6542mGB5KoRigt7Mso-41" style="edgeStyle=none;html=1;labelBackgroundColor=none;startFill=0;endArrow=none;endFill=0;strokeWidth=2;fontFamily=Verdana;fontSize=12;exitX=0.5;exitY=1;exitDx=0;exitDy=0;exitPerimeter=0;entryX=0.5;entryY=0;entryDx=0;entryDy=0;entryPerimeter=0;" edge="1" parent="1" source="DP6542mGB5KoRigt7Mso-16" target="DP6542mGB5KoRigt7Mso-35">
          <mxGeometry relative="1" as="geometry">
            <mxPoint x="825" y="953" as="sourcePoint" />
            <mxPoint x="721" y="1143" as="targetPoint" />
          </mxGeometry>
        </mxCell>
        <mxCell id="DP6542mGB5KoRigt7Mso-42" value="" style="points=[[0.03,0.03,0],[0.5,0,0],[0.97,0.03,0],[1,0.4,0],[0.97,0.745,0],[0.5,1,0],[0.03,0.745,0],[0,0.4,0]];verticalLabelPosition=bottom;sketch=0;html=1;verticalAlign=top;aspect=fixed;align=center;pointerEvents=1;shape=mxgraph.cisco19.workstation;fillColor=#005073;strokeColor=none;" vertex="1" parent="1">
          <mxGeometry x="927.5" y="1133" width="82.5" height="66" as="geometry" />
        </mxCell>
        <mxCell id="DP6542mGB5KoRigt7Mso-43" value="" style="points=[[0.03,0.03,0],[0.5,0,0],[0.97,0.03,0],[1,0.4,0],[0.97,0.745,0],[0.5,1,0],[0.03,0.745,0],[0,0.4,0]];verticalLabelPosition=bottom;sketch=0;html=1;verticalAlign=top;aspect=fixed;align=center;pointerEvents=1;shape=mxgraph.cisco19.workstation;fillColor=#005073;strokeColor=none;" vertex="1" parent="1">
          <mxGeometry x="1040" y="1133" width="82.5" height="66" as="geometry" />
        </mxCell>
        <mxCell id="DP6542mGB5KoRigt7Mso-44" value="" style="points=[[0.03,0.03,0],[0.5,0,0],[0.97,0.03,0],[1,0.4,0],[0.97,0.745,0],[0.5,1,0],[0.03,0.745,0],[0,0.4,0]];verticalLabelPosition=bottom;sketch=0;html=1;verticalAlign=top;aspect=fixed;align=center;pointerEvents=1;shape=mxgraph.cisco19.workstation;fillColor=#005073;strokeColor=none;" vertex="1" parent="1">
          <mxGeometry x="1150" y="1133" width="82.5" height="66" as="geometry" />
        </mxCell>
        <mxCell id="DP6542mGB5KoRigt7Mso-46" style="edgeStyle=none;html=1;labelBackgroundColor=none;startFill=0;endArrow=none;endFill=0;strokeWidth=2;fontFamily=Verdana;fontSize=12;exitX=0.5;exitY=1;exitDx=0;exitDy=0;exitPerimeter=0;entryX=0.5;entryY=0;entryDx=0;entryDy=0;entryPerimeter=0;" edge="1" parent="1" source="DP6542mGB5KoRigt7Mso-18" target="DP6542mGB5KoRigt7Mso-43">
          <mxGeometry relative="1" as="geometry">
            <mxPoint x="1027" y="975" as="sourcePoint" />
            <mxPoint x="979" y="1143" as="targetPoint" />
          </mxGeometry>
        </mxCell>
        <mxCell id="DP6542mGB5KoRigt7Mso-47" style="edgeStyle=none;html=1;labelBackgroundColor=none;startFill=0;endArrow=none;endFill=0;strokeWidth=2;fontFamily=Verdana;fontSize=12;exitX=0.5;exitY=1;exitDx=0;exitDy=0;exitPerimeter=0;entryX=0.5;entryY=0;entryDx=0;entryDy=0;entryPerimeter=0;" edge="1" parent="1" source="DP6542mGB5KoRigt7Mso-18" target="DP6542mGB5KoRigt7Mso-44">
          <mxGeometry relative="1" as="geometry">
            <mxPoint x="1027" y="975" as="sourcePoint" />
            <mxPoint x="1091" y="1143" as="targetPoint" />
          </mxGeometry>
        </mxCell>
        <mxCell id="DP6542mGB5KoRigt7Mso-48" style="edgeStyle=none;html=1;labelBackgroundColor=none;startFill=0;endArrow=none;endFill=0;strokeWidth=2;fontFamily=Verdana;fontSize=12;exitX=0.5;exitY=1;exitDx=0;exitDy=0;exitPerimeter=0;entryX=0.5;entryY=0;entryDx=0;entryDy=0;entryPerimeter=0;" edge="1" parent="1" target="DP6542mGB5KoRigt7Mso-49" source="DP6542mGB5KoRigt7Mso-19">
          <mxGeometry relative="1" as="geometry">
            <mxPoint x="1489.5" y="968" as="sourcePoint" />
            <mxPoint x="1657.8398058252428" y="1319" as="targetPoint" />
          </mxGeometry>
        </mxCell>
        <mxCell id="DP6542mGB5KoRigt7Mso-49" value="" style="points=[[0.03,0.03,0],[0.5,0,0],[0.97,0.03,0],[1,0.4,0],[0.97,0.745,0],[0.5,1,0],[0.03,0.745,0],[0,0.4,0]];verticalLabelPosition=bottom;sketch=0;html=1;verticalAlign=top;aspect=fixed;align=center;pointerEvents=1;shape=mxgraph.cisco19.workstation;fillColor=#005073;strokeColor=none;" vertex="1" parent="1">
          <mxGeometry x="1400" y="1136" width="82.5" height="66" as="geometry" />
        </mxCell>
        <mxCell id="DP6542mGB5KoRigt7Mso-50" value="" style="points=[[0.03,0.03,0],[0.5,0,0],[0.97,0.03,0],[1,0.4,0],[0.97,0.745,0],[0.5,1,0],[0.03,0.745,0],[0,0.4,0]];verticalLabelPosition=bottom;sketch=0;html=1;verticalAlign=top;aspect=fixed;align=center;pointerEvents=1;shape=mxgraph.cisco19.workstation;fillColor=#005073;strokeColor=none;" vertex="1" parent="1">
          <mxGeometry x="1512.5" y="1136" width="82.5" height="66" as="geometry" />
        </mxCell>
        <mxCell id="DP6542mGB5KoRigt7Mso-51" value="" style="points=[[0.03,0.03,0],[0.5,0,0],[0.97,0.03,0],[1,0.4,0],[0.97,0.745,0],[0.5,1,0],[0.03,0.745,0],[0,0.4,0]];verticalLabelPosition=bottom;sketch=0;html=1;verticalAlign=top;aspect=fixed;align=center;pointerEvents=1;shape=mxgraph.cisco19.workstation;fillColor=#005073;strokeColor=none;" vertex="1" parent="1">
          <mxGeometry x="1622.5" y="1136" width="82.5" height="66" as="geometry" />
        </mxCell>
        <mxCell id="DP6542mGB5KoRigt7Mso-52" style="edgeStyle=none;html=1;labelBackgroundColor=none;startFill=0;endArrow=none;endFill=0;strokeWidth=2;fontFamily=Verdana;fontSize=12;entryX=0.5;entryY=0;entryDx=0;entryDy=0;entryPerimeter=0;" edge="1" parent="1" target="DP6542mGB5KoRigt7Mso-50">
          <mxGeometry relative="1" as="geometry">
            <mxPoint x="1480" y="960" as="sourcePoint" />
            <mxPoint x="1451.5" y="1146" as="targetPoint" />
          </mxGeometry>
        </mxCell>
        <mxCell id="DP6542mGB5KoRigt7Mso-53" style="edgeStyle=none;html=1;labelBackgroundColor=none;startFill=0;endArrow=none;endFill=0;strokeWidth=2;fontFamily=Verdana;fontSize=12;entryX=0.5;entryY=0;entryDx=0;entryDy=0;entryPerimeter=0;" edge="1" parent="1" target="DP6542mGB5KoRigt7Mso-51">
          <mxGeometry relative="1" as="geometry">
            <mxPoint x="1480" y="960" as="sourcePoint" />
            <mxPoint x="1563.5" y="1146" as="targetPoint" />
          </mxGeometry>
        </mxCell>
        <mxCell id="DP6542mGB5KoRigt7Mso-54" style="edgeStyle=none;html=1;labelBackgroundColor=none;startFill=0;endArrow=none;endFill=0;strokeWidth=2;fontFamily=Verdana;fontSize=12;exitX=1;exitY=0.5;exitDx=0;exitDy=0;exitPerimeter=0;entryX=0.16;entryY=0.55;entryDx=0;entryDy=0;entryPerimeter=0;" edge="1" parent="1" source="DP6542mGB5KoRigt7Mso-13" target="1c7a67bf8fd3230f-15">
          <mxGeometry relative="1" as="geometry">
            <mxPoint x="1352" y="565" as="sourcePoint" />
            <mxPoint x="1450" y="530" as="targetPoint" />
          </mxGeometry>
        </mxCell>
        <mxCell id="DP6542mGB5KoRigt7Mso-55" style="edgeStyle=none;html=1;labelBackgroundColor=none;startFill=0;endArrow=none;endFill=0;strokeWidth=2;fontFamily=Verdana;fontSize=12;exitX=0.5;exitY=1;exitDx=0;exitDy=0;exitPerimeter=0;entryX=0.22;entryY=0.185;entryDx=0;entryDy=0;entryPerimeter=0;" edge="1" parent="1" source="DP6542mGB5KoRigt7Mso-32" target="DP6542mGB5KoRigt7Mso-14">
          <mxGeometry relative="1" as="geometry">
            <mxPoint x="440" y="1260" as="sourcePoint" />
            <mxPoint x="483" y="1340" as="targetPoint" />
          </mxGeometry>
        </mxCell>
        <mxCell id="DP6542mGB5KoRigt7Mso-56" value="" style="sketch=0;points=[[0.015,0.015,0],[0.985,0.015,0],[0.985,0.985,0],[0.015,0.985,0],[0.25,0,0],[0.5,0,0],[0.75,0,0],[1,0.25,0],[1,0.5,0],[1,0.75,0],[0.75,1,0],[0.5,1,0],[0.25,1,0],[0,0.75,0],[0,0.5,0],[0,0.25,0]];verticalLabelPosition=bottom;html=1;verticalAlign=top;aspect=fixed;align=center;pointerEvents=1;shape=mxgraph.cisco19.dns_server;fillColor=#005073;strokeColor=none;" vertex="1" parent="1">
          <mxGeometry x="560" y="300" width="71.5" height="130" as="geometry" />
        </mxCell>
        <mxCell id="DP6542mGB5KoRigt7Mso-58" style="edgeStyle=none;html=1;labelBackgroundColor=none;startFill=0;endArrow=none;endFill=0;strokeWidth=2;fontFamily=Verdana;fontSize=12;entryX=0.5;entryY=1;entryDx=0;entryDy=0;entryPerimeter=0;exitX=1;exitY=0.5;exitDx=0;exitDy=0;exitPerimeter=0;" edge="1" parent="1" source="DP6542mGB5KoRigt7Mso-56" target="DP6542mGB5KoRigt7Mso-15">
          <mxGeometry relative="1" as="geometry">
            <mxPoint x="1060" y="632" as="sourcePoint" />
            <mxPoint x="680" y="938" as="targetPoint" />
          </mxGeometry>
        </mxCell>
        <mxCell id="DP6542mGB5KoRigt7Mso-59" value="" style="sketch=0;points=[[0.015,0.015,0],[0.985,0.015,0],[0.985,0.985,0],[0.015,0.985,0],[0.25,0,0],[0.5,0,0],[0.75,0,0],[1,0.25,0],[1,0.5,0],[1,0.75,0],[0.75,1,0],[0.5,1,0],[0.25,1,0],[0,0.75,0],[0,0.5,0],[0,0.25,0]];verticalLabelPosition=bottom;html=1;verticalAlign=top;aspect=fixed;align=center;pointerEvents=1;shape=mxgraph.cisco19.server;fillColor=#005073;strokeColor=none;" vertex="1" parent="1">
          <mxGeometry x="564.13" y="462.5" width="63.25" height="115" as="geometry" />
        </mxCell>
        <mxCell id="DP6542mGB5KoRigt7Mso-60" style="edgeStyle=none;html=1;labelBackgroundColor=none;startFill=0;endArrow=none;endFill=0;strokeWidth=2;fontFamily=Verdana;fontSize=12;exitX=1;exitY=0.5;exitDx=0;exitDy=0;exitPerimeter=0;" edge="1" parent="1" source="DP6542mGB5KoRigt7Mso-59">
          <mxGeometry relative="1" as="geometry">
            <mxPoint x="642" y="375" as="sourcePoint" />
            <mxPoint x="1050" y="600" as="targetPoint" />
          </mxGeometry>
        </mxCell>
        <mxCell id="DP6542mGB5KoRigt7Mso-61" value="" style="sketch=0;points=[[0.015,0.015,0],[0.985,0.015,0],[0.985,0.985,0],[0.015,0.985,0],[0.25,0,0],[0.5,0,0],[0.75,0,0],[1,0.25,0],[1,0.5,0],[1,0.75,0],[0.75,1,0],[0.5,1,0],[0.25,1,0],[0,0.75,0],[0,0.5,0],[0,0.25,0]];verticalLabelPosition=bottom;html=1;verticalAlign=top;aspect=fixed;align=center;pointerEvents=1;shape=mxgraph.cisco19.server;fillColor=#005073;strokeColor=none;" vertex="1" parent="1">
          <mxGeometry x="564.13" y="620" width="63.25" height="115" as="geometry" />
        </mxCell>
        <mxCell id="DP6542mGB5KoRigt7Mso-62" style="edgeStyle=none;html=1;labelBackgroundColor=none;startFill=0;endArrow=none;endFill=0;strokeWidth=2;fontFamily=Verdana;fontSize=12;exitX=1;exitY=0.5;exitDx=0;exitDy=0;exitPerimeter=0;" edge="1" parent="1" source="DP6542mGB5KoRigt7Mso-61">
          <mxGeometry relative="1" as="geometry">
            <mxPoint x="637" y="530" as="sourcePoint" />
            <mxPoint x="1050" y="600" as="targetPoint" />
          </mxGeometry>
        </mxCell>
      </root>
    </mxGraphModel>
  </diagram>
</mxfile>
